<svg width="1024" height="1024" version="1.1" xmlns="http://www.w3.org/2000/svg" desc="Created with imagetracer.js version 1.2.6" ><path fill="rgb(7,44,12)" stroke="rgb(7,44,12)" stroke-width="1" opacity="0.37254901960784315" d="M 279.5 309 L 278.5 311 L 279.5 309 Z " /><path fill="rgb(7,44,12)" stroke="rgb(7,44,12)" stroke-width="1" opacity="0.37254901960784315" d="M 588.5 311 L 590.5 314 L 588.5 311 Z " /><path fill="rgb(7,44,12)" stroke="rgb(7,44,12)" stroke-width="1" opacity="0.37254901960784315" d="M 592.5 314 L 593.5 316 L 592.5 314 Z " /><path fill="rgb(7,44,12)" stroke="rgb(7,44,12)" stroke-width="1" opacity="0.37254901960784315" d="M 271.5 315 L 270.5 317 L 271.5 315 Z " /><path fill="rgb(7,44,12)" stroke="rgb(7,44,12)" stroke-width="1" opacity="0.37254901960784315" d="M 279.5 315 L 278.5 317 L 279.5 315 Z " /><path fill="rgb(7,44,12)" stroke="rgb(7,44,12)" stroke-width="1" opacity="0.37254901960784315" d="M 595.5 316 L 604 323.5 L 599.5 320 L 595.5 316 Z " /><path fill="rgb(7,44,12)" stroke="rgb(7,44,12)" stroke-width="1" opacity="0.37254901960784315" d="M 267.5 318 L 266.5 320 L 267.5 318 Z " /><path fill="rgb(7,44,12)" stroke="rgb(7,44,12)" stroke-width="1" opacity="0.37254901960784315" d="M 275.5 318 L 274.5 320 L 275.5 318 Z " /><path fill="rgb(7,44,12)" stroke="rgb(7,44,12)" stroke-width="1" opacity="0.37254901960784315" d="M 272.5 320 L 266.5 327 L 252 340.5 Q 231.3 362.3 219 392.5 L 211 421.5 L 209 448.5 L 210 449.5 L 210 464.5 L 214 486.5 L 225 517.5 Q 245 559.5 278.5 588 L 292 598.5 L 287 632.5 L 284 644.5 L 284 652.5 Q 285 657 291.5 656 L 323.5 641 L 351.5 624 L 357.5 624 L 371.5 629 L 375.5 629 L 394.5 634 L 415.5 636 L 416.5 637 L 428.5 637 L 429.5 638 L 452 638 L 449 630.5 L 445 611.5 Q 446.8 605.3 444 603.5 L 444 573.5 L 445 572.5 L 445 565.5 L 447 555.5 L 451 542.5 Q 457.4 524.4 468.5 511 L 468 512.5 Q 459.9 522.6 456 536 Q 459 534.8 458 538.5 L 459 538.5 Q 472.2 504.7 498.5 484 Q 529.6 457.1 576.5 446 L 576.5 447 Q 518.3 461.3 484 499.5 Q 468.2 516.7 459 540.5 L 452 570.5 L 452 594.5 L 457 620.5 L 468 646.5 Q 482.7 671.8 504.5 690 Q 531 713 568.5 725 L 587.5 730 L 604.5 732 L 605.5 733 L 640.5 734 L 641.5 733 L 652.5 733 L 653.5 732 L 670.5 730 L 682.5 727 L 697.5 721 L 736.5 744 L 742.5 747 L 748.5 747 Q 752.9 745.4 752 738.5 L 742 697.5 L 768 673.5 Q 788.1 651.6 798 619.5 L 802 599.5 L 802 570.5 L 795 541.5 L 785 520.5 Q 773.4 501.6 757.5 487 Q 730.1 460.9 689.5 448 L 670.5 443 L 665.5 443 L 658.5 441 L 650.5 441 L 649.5 440 L 613.5 440 L 612.5 441 L 604.5 441 L 604.5 440 L 612.5 440 L 613.5 439 L 650.5 439 L 683.5 445 Q 708.2 452.3 728.5 464 Q 753.5 479 772 500.5 L 786.5 521 L 788 517.5 L 776 500 Q 773.3 501.1 774 498.5 L 768.5 492 Q 753.7 477.3 736 465.5 L 738.5 467 L 752.5 476 L 773 495.5 L 775 498.5 Q 791.9 516.1 802 540.5 L 808 558.5 L 808 563.5 L 811 576.5 L 812 592.5 L 811 593.5 L 811 606.5 L 810 607.5 L 809 619.5 L 804 637.5 Q 794.7 663.2 779 682.5 L 782.5 680 Q 785.1 680.8 784 677.5 L 788.5 672 L 788.5 674 Q 790.8 673.3 790 675.5 L 786 682.5 Q 788.5 684 785 685.5 L 784.5 688 Q 783.3 685.8 782 688.5 L 779 692.5 Q 781.3 693.8 778.5 695 L 777 695 L 777 698 Q 774.3 696.9 775 699.5 L 770 705.5 L 770 707.5 L 768.5 710 Q 765.2 708.9 766 711.5 L 767 712.5 L 760.5 719 L 759 718.5 Q 759.7 721.5 756 720 L 755.5 717 L 755 720.5 L 759 735.5 L 760 746.5 Q 758.5 753 753.5 756 L 744 758.5 L 749.5 759 L 753.5 757 L 753 758.5 L 752 760.5 L 753 763.5 L 751.5 765 L 742.5 769 Q 740.8 766.2 734.5 768 L 732.5 768 L 730.5 769 L 730.5 767 L 728.5 768 L 721.5 766 L 719.5 764 L 717.5 765 L 715 764 Q 716.3 760.7 711.5 762 L 711.5 763 L 713 763.5 L 709.5 764 L 707 762.5 L 709 762 L 708.5 760 L 706.5 761 L 704.5 760 L 703.5 763 L 702.5 760 L 700.5 759 L 698 760.5 L 701 761 L 700.5 763 L 697.5 762 Q 696.4 764.8 693 764 Q 694.8 759.5 689.5 761 L 687 762 L 687.5 764 L 690.5 762 L 689.5 764 L 683.5 766 L 680.5 765 L 678 766.5 L 678 765 L 674 765 L 672.5 768 L 672 766 L 670 766.5 L 671 768.5 L 668.5 769 L 659.5 770 L 659.5 769 L 669 767.5 L 662.5 767 L 654 769.5 L 656 770.5 L 653.5 772 L 651.5 771 L 647.5 772 L 647.5 771 L 652 769.5 L 646.5 769 L 644.5 769 Q 641.9 768.3 643 771 L 646 771.5 L 641.5 772 L 641.5 770 L 631.5 770 L 630.5 771 Q 629.3 768.8 628 771.5 Q 628.7 774.5 625 773 Q 626.3 770 622.5 771 L 620.5 771 L 616 770 Q 614.9 773.5 622.5 772 L 622.5 773 L 612.5 773 L 611 771.5 L 610.5 770 L 608.5 770 L 602.5 769 L 603.5 771 L 605 771.5 L 603.5 772 L 601.5 772 L 596 771 Q 597.5 767.3 594.5 768 L 592.5 768 L 588 767 L 589 769.5 L 585.5 769 L 578 766.5 L 579 764.5 L 577 765.5 L 576.5 767 L 576 765.5 L 576.5 764 L 572.5 763 L 573.5 765 L 575 765.5 L 573.5 766 L 568.5 764 Q 566.8 766.8 565 762.5 L 566.5 763 L 571 764 Q 572.3 761 568.5 762 L 557.5 758 L 558.5 760 L 564 762.5 L 562.5 763 L 556 760 L 555.5 758 L 553.5 759 L 551 757.5 L 552.5 757 L 554.5 758 L 553.5 756 L 548.5 757 L 547.5 754 Q 545.3 753.3 546 755.5 L 544.5 755 L 538 753 L 539 750.5 L 537.5 750 L 535.5 750 L 528 748 Q 529.3 745 525.5 746 L 524 743 L 521 741.5 L 518.5 738 L 516.5 737 L 516 739 L 519 740.5 L 517.5 741 L 512 736.5 L 514 736 L 512.5 733 L 511 733.5 L 511.5 735 Q 508.9 735.8 510 732.5 L 509 730 L 506 731.5 L 508 732 L 509 734.5 L 505.5 732 Q 503.3 732.8 504 730.5 L 503.5 728 Q 501.3 727.3 502 729.5 L 501 729.5 Q 501.5 724.5 497.5 724 Q 495.3 724.8 496 722.5 L 493 721 Q 494.1 718.3 491.5 719 L 484 713 L 485 710.5 L 477 705.5 L 478.5 705 L 481.5 706 L 481.5 705 Q 479.3 705.8 480 703.5 L 478 702.5 L 477.5 704 L 475 700.5 L 477 700.5 Q 477.8 698.3 475.5 699 L 474 698.5 L 473.5 700 L 472.5 698 Q 470.7 700.8 469 696.5 L 468 694.5 Q 470.3 693.3 467.5 692 L 462 687.5 L 459 682.5 L 462 684.5 L 464 689 L 466 688.5 L 466 686.5 L 460 680.5 L 460 678.5 L 459.5 677 Q 458.3 679.3 457 676.5 L 457.5 675 L 458.5 677 L 459 674.5 L 456 672.5 L 455.5 675 L 454.5 673 L 453.5 676 L 452 673 L 454 672.5 L 448.5 671 L 446 672 L 445.5 674 L 444.5 671 L 443.5 674 L 441.5 673 L 440 673.5 Q 440.8 671.3 438.5 672 L 436.5 673 L 433 672.5 Q 432.2 675.1 435.5 674 L 434.5 676 L 424.5 675 L 421.5 676 L 419.5 675 L 416.5 676 L 415 674.5 L 416.5 673 Q 418 676.5 419.5 674 L 423 673.5 L 420.5 672 L 418.5 673 L 415.5 672 L 413.5 672 L 411.5 671 L 407.5 671 L 406 672.5 L 405.5 674 L 405 672.5 L 405.5 671 Q 401.1 669.5 402 672.5 L 400 673.5 Q 400.8 671.3 398.5 672 L 396 673 Q 397.5 669.3 394.5 670 L 394.5 672 L 392.5 668 L 391.5 671 L 390.5 668 L 387.5 667 L 385.5 670 L 384 667 L 379.5 665 L 377.5 665 L 375 666.5 L 375.5 668 Q 373.3 668.8 374 666.5 L 374.5 665 L 372 665.5 L 372.5 667 L 370 663 L 362.5 663 L 362 664.5 L 364 664.5 Q 363.3 666.8 359.5 666 Q 358 662.5 356.5 665 L 354.5 666 L 351 664.5 L 350.5 662 L 346.5 664 Q 345.3 661.8 344 664.5 L 344.5 666 L 346.5 665 L 346.5 666 L 342.5 668 L 340.5 665 L 337.5 669 L 336.5 667 L 335.5 669 L 333 668 L 333 671 L 328 671 L 327.5 669 L 326.5 673 L 324.5 672 L 318.5 675 L 316.5 675 L 305.5 678 L 303.5 678 L 300.5 679 Q 297.2 676.3 290.5 677 L 285 674 Q 286.1 671.3 283.5 672 L 282 669.5 L 282.5 667 L 289.5 668 L 289.5 667 L 283.5 666 L 278 661.5 L 275 654.5 L 275 650.5 L 276 649.5 L 277 636.5 L 282 608.5 Q 263.6 594.9 249 577.5 Q 225.1 550.9 211 514.5 L 202 481.5 L 201 467.5 L 200 466.5 L 200 438.5 L 205 409.5 L 214 384.5 L 228 359.5 L 239.5 345 L 241 345.5 L 233 354.5 L 223 370.5 L 211 396.5 L 207 413.5 L 210 414.5 L 210.5 418 L 217 394.5 L 216.5 393 L 218 393.5 Q 234.2 352.2 265.5 326 L 272.5 320 Z M 207 414 L 204 425 L 205 429 L 203 433 L 204 438 Q 203 433 206 432 L 207 434 L 207 454 L 208 454 L 208 433 L 207 430 Q 205 428 208 427 L 208 432 L 209 432 Q 210 425 208 426 L 208 425 L 207 417 L 209 417 L 209 415 L 207 414 Z M 210 419 L 209 424 L 210 424 L 210 419 Z M 206 433 L 205 436 L 206 436 L 206 433 Z M 209 464 L 208 467 L 209 467 L 209 464 Z M 204 467 L 203 472 L 204 472 L 204 467 Z M 208 491 L 207 494 L 208 494 L 208 491 Z M 788 521 L 787 523 L 791 529 L 791 528 L 793 528 Q 794 524 790 526 L 790 525 L 790 523 L 788 521 Z M 792 529 L 791 531 L 795 537 L 796 534 L 795 530 L 794 532 L 792 529 Z M 456 536 L 452 545 Q 451 547 454 546 L 455 544 L 455 547 L 453 548 L 455 551 L 457 544 L 456 541 L 456 539 L 456 536 Z M 796 537 L 795 540 L 796 540 L 796 537 Z M 458 539 L 457 542 L 458 542 L 458 539 Z M 797 540 L 796 543 L 797 543 L 797 540 Z M 802 546 L 801 549 L 802 549 L 802 546 Z M 452 547 Q 450 550 453 549 L 452 547 Z M 800 549 L 799 552 L 800 552 L 800 549 Z M 454 551 L 453 555 L 454 555 L 454 551 Z M 801 552 L 800 556 L 801 556 L 801 552 Z M 453 556 L 452 560 L 453 560 L 453 556 Z M 802 556 L 801 560 L 803 560 L 802 556 Z M 452 561 L 451 565 L 452 565 L 452 561 Z M 803 561 L 802 565 L 803 565 L 803 561 Z M 451 568 L 450 576 L 451 576 L 451 568 Z M 804 569 L 803 573 L 804 573 L 804 569 Z M 805 583 L 804 587 L 805 587 L 805 583 Z M 451 591 L 450 594 L 451 594 L 451 591 Z M 452 602 L 451 605 L 452 605 L 452 602 Z M 355 640 L 355 641 L 357 641 L 355 640 Z M 358 641 L 358 642 L 360 642 L 358 641 Z M 346 642 L 345 644 L 347 643 L 346 642 Z M 361 642 L 361 643 L 364 643 L 361 642 Z M 365 643 L 365 644 L 368 644 L 365 643 Z M 369 644 L 369 645 L 372 646 L 376 646 L 369 644 Z M 377 646 L 377 647 L 381 647 L 377 646 Z M 382 647 L 382 648 L 385 648 L 382 647 Z M 387 648 L 387 649 L 391 649 L 387 648 Z M 392 649 L 392 650 L 396 650 L 392 649 Z M 397 650 L 397 651 L 402 651 L 397 650 Z M 404 651 L 404 652 L 408 652 L 404 651 Z M 409 652 L 409 653 L 417 653 L 409 652 Z M 419 653 L 419 654 L 427 654 L 419 653 Z M 432 654 L 432 655 L 448 655 L 432 654 Z M 450 654 L 450 655 L 456 655 L 450 654 Z M 318 656 L 318 657 L 320 657 L 318 656 Z M 358 661 L 357 663 Q 360 662 359 665 Q 362 666 361 662 L 358 661 Z M 304 662 L 302 663 L 302 664 L 306 663 L 304 662 Z M 353 662 Q 352 664 355 663 L 356 664 Q 357 660 353 662 Z M 374 662 L 372 664 L 374 664 L 374 662 Z M 378 662 L 377 664 L 379 663 L 378 662 Z M 384 663 L 382 666 L 384 666 L 384 663 Z M 463 663 L 462 665 L 464 666 L 463 663 Z M 299 664 L 299 665 L 301 665 L 299 664 Z M 296 665 L 296 666 L 298 666 L 296 665 Z M 292 666 L 292 667 L 295 667 L 292 666 Z M 449 668 L 448 670 L 452 670 L 449 668 Z M 457 668 L 455 671 L 456 672 L 458 671 L 457 668 Z M 398 670 L 398 671 L 400 671 L 398 670 Z M 432 671 L 430 674 L 432 673 L 432 671 Z M 459 671 L 461 674 L 461 673 L 459 671 Z M 468 671 L 467 673 L 470 675 L 468 671 Z M 429 672 L 424 674 L 429 674 L 429 672 Z M 471 675 L 470 677 L 472 678 L 471 675 Z M 473 678 L 472 680 L 477 684 L 473 678 Z M 463 679 L 464 681 Q 465 678 463 679 Z M 779 683 L 775 688 L 779 685 L 779 683 Z M 479 685 L 478 687 L 485 695 L 487 695 L 479 685 Z M 466 689 L 466 691 L 468 690 L 466 689 Z M 468 690 L 468 692 L 470 691 L 468 690 Z M 772 691 L 768 696 L 772 693 L 772 691 Z M 471 693 L 474 697 L 474 696 L 471 693 Z M 767 696 L 761 703 L 768 697 L 767 696 Z M 492 698 L 491 700 L 496 703 L 492 698 Z M 499 705 L 500 707 L 501 707 L 499 705 Z M 758 705 L 755 709 L 759 706 L 758 705 Z M 754 709 L 753 713 L 754 713 L 754 709 Z M 505 710 L 506 712 L 507 712 L 505 710 Z M 508 712 L 510 715 L 511 715 L 508 712 Z M 755 713 L 754 717 L 755 717 L 755 713 Z M 491 714 Q 489 717 492 716 L 491 714 Z M 512 715 L 513 717 L 514 717 L 512 715 Z M 515 717 L 516 719 L 517 719 L 515 717 Z M 497 721 Q 496 725 501 724 L 501 723 Q 498 724 499 721 L 497 721 Z M 521 721 L 522 723 L 523 723 L 521 721 Z M 526 724 L 527 726 L 529 726 L 526 724 Z M 514 726 L 513 729 L 514 729 L 514 726 Z M 539 731 L 540 733 L 542 733 L 539 731 Z M 548 735 L 549 737 L 551 737 L 548 735 Z M 557 739 L 557 740 L 559 740 L 557 739 Z M 698 739 L 698 740 L 702 740 L 698 739 Z M 560 740 L 560 741 L 562 741 L 560 740 Z M 692 740 L 689 741 L 689 742 L 694 741 L 692 740 Z M 563 741 L 563 742 L 565 742 L 563 741 Z M 705 741 L 705 742 L 707 742 L 705 741 Z M 526 742 L 526 744 Q 525 746 528 745 Q 530 741 526 742 Z M 566 742 L 566 743 L 569 744 L 572 744 L 566 742 Z M 686 742 L 686 743 L 688 743 L 686 742 Z M 573 744 L 573 745 L 575 745 L 573 744 Z M 678 744 L 678 745 L 681 745 L 678 744 Z M 713 744 L 714 746 L 716 746 L 713 744 Z M 577 745 L 577 746 L 579 746 L 577 745 Z M 675 745 L 675 746 L 677 746 L 675 745 Z M 580 746 L 580 747 L 584 747 L 580 746 Z M 671 746 L 671 747 L 674 747 L 671 746 Z M 533 747 L 534 749 L 536 749 L 533 747 Z M 586 747 L 586 748 L 589 748 L 586 747 Z M 666 747 L 666 748 L 670 748 L 666 747 Z M 591 748 L 591 749 L 595 749 L 591 748 Z M 660 748 L 660 749 L 665 749 L 660 748 Z M 597 749 L 597 750 L 602 750 L 597 749 Z M 652 749 L 652 750 L 658 750 L 652 749 Z M 605 750 L 605 751 L 612 751 L 605 750 Z M 642 750 L 642 751 L 650 751 L 642 750 Z M 616 751 L 616 752 L 640 752 L 616 751 Z M 542 752 L 544 754 L 546 754 L 542 752 Z M 741 757 L 741 758 L 743 758 L 741 757 Z M 697 760 L 696 761 Q 693 760 694 763 L 697 762 L 697 760 Z M 684 763 L 684 764 L 686 764 L 684 763 Z M 580 765 L 580 767 L 582 766 L 587 769 L 587 768 Q 585 764 580 765 Z M 598 768 Q 596 771 599 770 L 598 768 Z M 614 770 L 612 772 L 615 772 L 614 770 Z " /><path fill="rgb(7,44,12)" stroke="rgb(7,44,12)" stroke-width="1" opacity="0.37254901960784315" d="M 263.5 321 L 257.5 328 L 263.5 321 Z " /><path fill="rgb(7,44,12)" stroke="rgb(7,44,12)" stroke-width="1" opacity="0.37254901960784315" d="M 605.5 324 L 624 341.5 Q 644 363 657 391.5 L 665 414.5 L 669 437 Q 665.5 438.1 667 430.5 L 662 408.5 L 650 379.5 Q 635.1 352.4 613.5 332 L 605.5 324 Z " /><path fill="rgb(7,44,12)" stroke="rgb(7,44,12)" stroke-width="1" opacity="0.37254901960784315" d="M 614.5 325 L 616.5 328 L 614.5 325 Z " /><path fill="rgb(7,44,12)" stroke="rgb(7,44,12)" stroke-width="1" opacity="0.37254901960784315" d="M 254.5 329 L 256 329.5 L 248 336 L 241.5 344 L 242 342.5 L 254.5 329 Z " /><path fill="rgb(7,44,12)" stroke="rgb(7,44,12)" stroke-width="1" opacity="0.37254901960784315" d="M 618.5 329 L 629.5 341 L 618.5 329 Z " /><path fill="rgb(7,44,12)" stroke="rgb(7,44,12)" stroke-width="1" opacity="0.37254901960784315" d="M 630.5 342 L 633 343 L 652 368.5 L 664 391.5 L 671 410.5 L 675 427.5 L 676 439.5 L 675 439.5 L 670 413.5 L 661 388.5 L 649 366.5 L 630.5 342 Z " /><path fill="rgb(7,44,12)" stroke="rgb(7,44,12)" stroke-width="1" opacity="0.37254901960784315" d="M 355.5 370 L 369.5 371 Q 378.5 374.5 384 381.5 L 390 393.5 L 390 406.5 Q 387.4 417.4 379.5 423 L 367.5 429 L 353.5 429 Q 343 426.5 337 419.5 L 331 408.5 L 330 395.5 Q 332.6 382.6 341.5 376 L 355.5 370 Z M 353 372 L 344 376 L 340 380 L 341 381 L 340 383 L 342 385 L 340 384 L 341 387 L 338 386 L 338 387 Q 340 386 339 390 Q 338 393 334 392 L 334 390 L 332 393 Q 330 403 333 410 L 335 409 L 333 406 L 334 401 L 337 408 L 338 406 L 338 408 L 337 410 L 339 409 L 341 413 L 338 419 L 342 421 L 340 419 L 341 417 L 343 420 L 345 417 L 346 417 Q 345 419 348 418 L 351 418 Q 350 420 353 419 L 353 420 Q 350 419 351 422 L 355 421 L 355 423 L 357 422 L 359 423 L 360 423 L 359 425 Q 362 426 361 424 Q 363 425 365 422 L 366 423 L 367 421 L 369 423 L 368 423 L 368 424 L 372 422 Q 374 423 373 420 L 380 416 L 381 417 Q 380 414 383 415 L 385 411 L 384 409 L 386 408 L 387 411 L 389 405 L 389 396 L 384 384 L 381 380 L 380 381 L 375 379 L 378 378 Q 371 369 353 372 Z M 338 382 Q 336 385 339 384 L 338 382 Z M 336 385 L 334 388 L 335 390 L 336 388 L 336 385 Z M 337 411 L 337 413 L 339 412 L 337 411 Z M 386 411 L 384 415 L 386 414 L 386 411 Z M 381 418 L 379 421 L 382 419 L 381 418 Z M 374 419 Q 373 422 376 421 Q 377 418 374 419 Z M 343 421 L 344 423 Q 345 420 343 421 Z M 349 425 L 349 426 L 351 426 L 349 425 Z M 352 426 L 352 427 L 356 427 L 352 426 Z M 365 426 Q 363 429 357 427 L 357 428 L 365 428 L 370 427 L 365 426 Z " /><path fill="rgb(7,44,12)" stroke="rgb(7,44,12)" stroke-width="1" opacity="0.37254901960784315" d="M 504.5 370 Q 525.2 369.3 533 381.5 L 539 394.5 L 539 405.5 Q 536.6 417.1 528.5 423 Q 520.2 431.2 501.5 429 Q 489.9 426.1 484 417.5 L 480 410.5 L 478 399.5 L 480 389.5 L 487.5 378 Q 494.1 372.1 504.5 370 Z M 502 372 L 493 376 L 492 378 L 495 377 Q 496 375 497 378 L 495 379 L 493 379 Q 494 382 492 381 L 488 383 L 490 380 L 489 379 Q 483 385 480 394 L 480 406 L 483 414 L 485 415 L 484 413 L 485 411 L 487 416 L 485 416 L 488 419 L 488 417 L 493 416 L 495 417 L 498 416 L 498 418 L 502 416 L 502 418 L 502 419 L 505 418 L 505 416 L 508 418 L 510 418 L 507 416 L 511 416 L 511 415 L 513 415 L 515 414 L 513 411 L 516 410 L 519 414 L 519 412 L 519 410 L 522 411 L 523 410 L 522 412 L 524 412 L 525 409 L 527 410 L 526 408 Q 527 405 525 406 L 524 404 L 526 403 L 528 403 L 531 404 L 532 402 L 531 401 L 530 399 L 532 398 L 531 395 L 532 393 L 531 393 L 529 390 L 528 392 L 527 392 L 528 389 L 527 389 L 525 389 L 527 388 L 526 387 L 524 385 Q 520 383 523 382 L 522 380 Q 518 378 521 377 L 516 375 L 515 373 L 517 374 L 519 374 L 517 372 L 502 372 Z M 520 374 L 522 376 L 524 376 L 520 374 Z M 523 377 Q 521 380 524 379 L 523 377 Z M 526 377 L 527 379 L 528 379 L 526 377 Z M 525 379 L 526 381 Q 527 378 525 379 Z M 530 380 L 529 382 L 532 384 L 530 380 Z M 525 381 L 523 383 L 525 383 L 525 381 Z M 526 381 L 526 383 L 528 382 L 526 381 Z M 529 382 Q 527 385 530 384 L 529 382 Z M 526 383 Q 523 387 527 386 Q 528 388 529 386 L 526 385 L 526 383 Z M 534 385 L 534 390 L 535 390 L 534 385 Z M 536 390 L 537 401 L 538 401 L 537 393 L 536 390 Z M 537 403 L 536 408 L 537 408 L 537 403 Z M 536 408 L 535 411 L 536 411 L 536 408 Z M 516 414 L 514 416 L 517 416 L 516 414 Z M 530 417 L 530 419 L 532 418 L 530 417 Z M 529 419 L 528 421 L 530 420 L 529 419 Z M 495 424 L 495 425 L 497 425 L 495 424 Z M 518 425 L 514 426 L 514 427 L 521 426 L 518 425 Z M 500 426 L 500 427 L 503 427 L 500 426 Z M 505 427 L 505 428 L 513 428 L 505 427 Z " /><path fill="rgb(7,44,12)" stroke="rgb(7,44,12)" stroke-width="1" opacity="0.37254901960784315" d="M 506.5 373 L 512 373 L 512 375.5 L 511 375.5 Q 511.9 372.1 506.5 374 L 506.5 373 Z " /><path fill="rgb(7,44,12)" stroke="rgb(7,44,12)" stroke-width="1" opacity="0.37254901960784315" d="M 499.5 374 L 499 375.5 L 498.5 377 L 497.5 375 L 499.5 374 Z " /><path fill="rgb(7,44,12)" stroke="rgb(7,44,12)" stroke-width="1" opacity="0.37254901960784315" d="M 348 375 L 350 375.5 L 348 376.5 L 348 375 Z " /><path fill="rgb(7,44,12)" stroke="rgb(7,44,12)" stroke-width="1" opacity="0.37254901960784315" d="M 344.5 377 L 345 379.5 L 344.5 381 L 343.5 379 L 342 379.5 L 344.5 377 Z " /><path fill="rgb(7,44,12)" stroke="rgb(7,44,12)" stroke-width="1" opacity="0.37254901960784315" d="M 517.5 381 L 518.5 383 L 517.5 381 Z " /><path fill="rgb(7,44,12)" stroke="rgb(7,44,12)" stroke-width="1" opacity="0.37254901960784315" d="M 380.5 382 L 379.5 384 L 380.5 382 Z " /><path fill="rgb(7,44,12)" stroke="rgb(7,44,12)" stroke-width="1" opacity="0.37254901960784315" d="M 483.5 389 L 484 391.5 L 483 391.5 L 483.5 389 Z " /><path fill="rgb(7,44,12)" stroke="rgb(7,44,12)" stroke-width="1" opacity="0.37254901960784315" d="M 333 393 L 336 394.5 L 334 395 L 334.5 398 L 336 397.5 L 333 399.5 L 333 393 Z " /><path fill="rgb(7,44,12)" stroke="rgb(7,44,12)" stroke-width="1" opacity="0.37254901960784315" d="M 528.5 393 L 529.5 395 L 528.5 393 Z " /><path fill="rgb(7,44,12)" stroke="rgb(7,44,12)" stroke-width="1" opacity="0.37254901960784315" d="M 481.5 395 L 483 407.5 L 482 407.5 Q 479.6 402.7 481.5 395 Z " /><path fill="rgb(7,44,12)" stroke="rgb(7,44,12)" stroke-width="1" opacity="0.37254901960784315" d="M 387.5 398 L 388 402.5 L 386 401.5 L 387.5 398 Z " /><path fill="rgb(7,44,12)" stroke="rgb(7,44,12)" stroke-width="1" opacity="0.37254901960784315" d="M 335.5 401 L 336 403.5 L 335 403.5 L 335.5 401 Z " /><path fill="rgb(7,44,12)" stroke="rgb(7,44,12)" stroke-width="1" opacity="0.37254901960784315" d="M 210.5 404 L 211 406.5 L 210 406.5 L 210.5 404 Z " /><path fill="rgb(7,44,12)" stroke="rgb(7,44,12)" stroke-width="1" opacity="0.37254901960784315" d="M 522.5 406 L 523.5 408 L 522.5 406 Z " /><path fill="rgb(7,44,12)" stroke="rgb(7,44,12)" stroke-width="1" opacity="0.37254901960784315" d="M 209.5 409 L 211 412.5 L 210 412.5 L 209.5 409 Z " /><path fill="rgb(7,44,12)" stroke="rgb(7,44,12)" stroke-width="1" opacity="0.37254901960784315" d="M 341.5 410 L 344 411.5 L 342.5 411 L 341.5 410 Z " /><path fill="rgb(7,44,12)" stroke="rgb(7,44,12)" stroke-width="1" opacity="0.37254901960784315" d="M 342.5 414 L 343.5 416 L 341 415.5 L 342.5 414 Z " /><path fill="rgb(7,44,12)" stroke="rgb(7,44,12)" stroke-width="1" opacity="0.37254901960784315" d="M 678.5 440 L 681 441.5 L 679.5 442 L 678.5 440 Z " /><path fill="rgb(7,44,12)" stroke="rgb(7,44,12)" stroke-width="1" opacity="0.37254901960784315" d="M 597.5 441 L 603 441.5 L 597.5 442 L 597.5 441 Z " /><path fill="rgb(7,44,12)" stroke="rgb(7,44,12)" stroke-width="1" opacity="0.37254901960784315" d="M 591.5 442 L 596 442.5 L 582.5 445 L 582.5 444 L 591.5 442 Z " /><path fill="rgb(7,44,12)" stroke="rgb(7,44,12)" stroke-width="1" opacity="0.37254901960784315" d="M 682.5 442 L 694 445.5 L 692.5 446 L 682.5 443 L 682.5 442 Z " /><path fill="rgb(7,44,12)" stroke="rgb(7,44,12)" stroke-width="1" opacity="0.37254901960784315" d="M 578.5 445 L 581 445.5 L 578.5 446 L 578.5 445 Z " /><path fill="rgb(7,44,12)" stroke="rgb(7,44,12)" stroke-width="1" opacity="0.37254901960784315" d="M 695.5 446 L 700 447.5 L 698.5 448 L 695.5 447 L 695.5 446 Z " /><path fill="rgb(7,44,12)" stroke="rgb(7,44,12)" stroke-width="1" opacity="0.37254901960784315" d="M 706.5 450 L 710 451.5 L 708.5 452 L 706.5 450 Z " /><path fill="rgb(7,44,12)" stroke="rgb(7,44,12)" stroke-width="1" opacity="0.37254901960784315" d="M 714.5 453 L 719 455.5 L 717.5 456 L 714.5 453 Z " /><path fill="rgb(7,44,12)" stroke="rgb(7,44,12)" stroke-width="1" opacity="0.37254901960784315" d="M 720.5 456 L 726 459.5 L 724.5 459 Q 720.5 458.5 720.5 456 Z " /><path fill="rgb(7,44,12)" stroke="rgb(7,44,12)" stroke-width="1" opacity="0.37254901960784315" d="M 727.5 460 L 734 464.5 L 731.5 463 Q 726.8 462.2 727.5 460 Z " /><path fill="rgb(7,44,12)" stroke="rgb(7,44,12)" stroke-width="1" opacity="0.37254901960784315" d="M 480.5 496 L 478.5 499 L 480.5 496 Z " /><path fill="rgb(7,44,12)" stroke="rgb(7,44,12)" stroke-width="1" opacity="0.37254901960784315" d="M 474.5 503 L 472 506.5 L 469.5 510 L 471 507.5 L 474.5 503 Z " /><path fill="rgb(7,44,12)" stroke="rgb(7,44,12)" stroke-width="1" opacity="0.37254901960784315" d="M 670.5 530 L 669.5 532 L 670.5 530 Z " /><path fill="rgb(7,44,12)" stroke="rgb(7,44,12)" stroke-width="1" opacity="0.37254901960784315" d="M 348.5 664 L 349.5 666 L 348.5 664 Z " /><path fill="rgb(7,44,12)" stroke="rgb(7,44,12)" stroke-width="1" opacity="0.37254901960784315" d="M 367.5 665 Q 369.8 664.3 369 666.5 L 367.5 665 Z " /><path fill="rgb(7,44,12)" stroke="rgb(7,44,12)" stroke-width="1" opacity="0.37254901960784315" d="M 379.5 667 L 383 668.5 L 380.5 669 L 379.5 667 Z " /><path fill="rgb(7,44,12)" stroke="rgb(7,44,12)" stroke-width="1" opacity="0.37254901960784315" d="M 387.5 669 Q 389.8 668.3 389 670.5 L 387.5 669 Z " /><path fill="rgb(7,44,12)" stroke="rgb(7,44,12)" stroke-width="1" opacity="0.37254901960784315" d="M 407.5 673 L 413 673.5 L 407.5 674 L 407.5 673 Z " /><path fill="rgb(7,44,12)" stroke="rgb(7,44,12)" stroke-width="1" opacity="0.37254901960784315" d="M 447.5 673 L 448.5 675 L 447.5 673 Z " /><path fill="rgb(7,44,12)" stroke="rgb(7,44,12)" stroke-width="1" opacity="0.37254901960784315" d="M 439 675 L 443 676.5 L 441.5 676 L 439.5 677 L 439 675 Z " /><path fill="rgb(7,44,12)" stroke="rgb(7,44,12)" stroke-width="1" opacity="0.37254901960784315" d="M 445.5 675 L 446.5 677 Q 443.7 677.7 445.5 675 Z " /><path fill="rgb(7,44,12)" stroke="rgb(7,44,12)" stroke-width="1" opacity="0.37254901960784315" d="M 456.5 680 Q 458.8 679.3 458 681.5 L 455 681.5 L 456.5 680 Z " /><path fill="rgb(7,44,12)" stroke="rgb(7,44,12)" stroke-width="1" opacity="0.37254901960784315" d="M 590.5 769 L 591.5 771 L 590.5 769 Z " /><path fill="rgb(7,44,12)" stroke="rgb(7,44,12)" stroke-width="1" opacity="0.37254901960784315" d="M 635.5 771 L 640 772.5 L 637.5 773 L 635.5 773 L 634 772.5 L 635.5 771 Z " /><path fill="rgb(7,44,12)" stroke="rgb(7,44,12)" stroke-width="1" opacity="0.37254901960784315" d="M 629 772 L 632 772.5 L 629.5 774 L 629 772 Z " /><path fill="rgb(0,0,0)" stroke="rgb(0,0,0)" stroke-width="1" opacity="0" d="M 0 0 L 1024 0 L 1024 1024 L 0 1024 L 0 0 Z M 423 264 L 422 265 L 406 265 L 405 266 L 384 268 L 342 278 L 316 288 Q 295 298 277 310 L 274 313 L 273 312 L 272 314 L 257 326 Q 235 345 220 372 L 207 402 L 203 417 L 201 427 L 201 435 L 200 436 L 200 467 L 202 476 L 202 483 L 211 515 Q 225 551 249 578 Q 264 595 282 609 L 277 637 L 276 650 L 275 651 L 275 655 L 278 662 L 284 666 L 290 667 L 290 668 L 283 667 L 283 669 L 282 671 L 284 670 L 284 672 Q 286 671 285 674 L 291 677 Q 297 676 301 679 L 304 678 L 306 678 L 317 675 L 320 672 L 321 673 L 324 673 L 323 672 L 323 671 L 327 673 L 328 669 L 328 671 L 333 671 L 333 668 L 336 669 L 337 667 L 338 669 L 341 665 L 342 667 L 343 665 L 343 667 L 345 667 L 344 665 Q 345 662 347 664 L 351 662 L 351 665 L 355 666 L 357 665 L 359 665 Q 360 662 357 663 L 358 661 L 361 662 Q 362 666 360 665 L 360 666 L 363 666 L 362 663 L 370 663 L 370 665 L 374 662 L 374 664 L 372 665 L 376 666 L 378 665 L 380 665 L 382 666 L 384 663 L 384 666 L 382 667 L 384 667 L 386 670 L 388 667 L 391 668 L 395 668 L 395 670 L 397 669 L 401 672 L 400 674 L 402 673 Q 401 669 406 671 L 412 671 L 414 672 L 416 672 L 419 673 L 421 672 L 423 673 L 425 673 L 429 672 L 429 674 L 424 673 L 419 675 L 422 676 L 425 675 L 435 676 L 436 674 Q 432 675 433 673 L 437 673 L 440 672 L 441 672 L 440 674 L 442 673 L 444 674 L 445 671 L 446 674 L 446 672 L 449 671 L 454 672 L 455 675 L 456 675 L 455 672 Q 456 669 454 670 L 454 669 L 456 670 L 457 668 L 457 670 L 460 671 L 462 676 L 463 677 L 458 671 L 456 672 Q 460 673 460 679 L 460 681 L 467 688 L 466 689 L 469 690 L 471 689 L 469 692 L 472 693 L 474 697 L 472 697 L 471 694 L 469 697 Q 471 701 473 698 L 474 700 L 474 699 L 476 699 L 478 698 L 477 700 L 480 705 L 482 706 L 480 706 L 481 708 L 483 707 L 484 708 L 482 709 L 485 710 L 486 710 L 484 713 L 492 719 L 495 721 L 497 721 Q 500 720 499 723 L 504 725 L 504 726 L 501 724 L 498 725 L 502 730 L 502 728 L 506 729 L 506 730 Q 503 729 504 732 L 509 730 L 510 733 Q 509 736 512 735 L 511 734 L 513 733 L 514 736 L 519 738 L 521 742 L 524 743 L 526 746 Q 529 745 528 748 L 532 748 L 529 746 L 530 744 L 530 746 L 539 750 L 538 752 Q 537 754 541 753 L 541 751 L 550 756 L 554 756 L 556 759 Q 555 761 558 760 L 558 758 L 569 762 Q 572 761 571 764 L 569 765 L 573 765 L 573 763 L 577 764 L 579 764 L 579 766 L 579 767 Q 581 768 580 765 L 586 766 L 588 769 L 588 767 L 593 768 L 595 768 Q 597 767 596 771 L 602 772 L 603 769 L 609 770 L 610 771 L 612 770 L 611 772 L 614 770 L 615 772 L 612 773 L 623 773 L 623 772 Q 615 774 616 770 L 621 771 L 623 771 Q 626 770 625 773 Q 629 774 628 772 Q 629 769 631 771 L 632 770 L 642 770 L 641 772 L 646 772 L 646 771 Q 642 772 643 769 L 646 770 Q 647 768 652 769 L 653 769 L 648 771 L 648 772 L 652 771 L 654 772 L 656 771 L 654 770 L 663 767 Q 669 766 671 769 L 671 768 L 671 766 Q 673 767 672 765 L 673 765 L 672 768 L 674 767 Q 673 764 678 765 L 679 765 L 678 767 L 681 765 L 684 766 L 688 765 L 687 762 L 690 761 Q 695 760 693 764 L 696 764 L 694 763 Q 693 760 696 761 Q 697 757 699 760 L 701 759 L 703 760 L 705 760 L 707 761 L 709 760 L 709 762 L 707 763 L 710 764 L 713 764 L 710 762 L 712 762 Q 716 761 715 764 L 718 763 L 717 765 L 719 765 L 722 764 L 721 766 L 728 767 L 730 767 L 733 768 L 735 768 Q 741 766 743 769 L 752 765 L 753 764 L 752 761 L 753 758 L 750 759 L 744 759 L 754 756 Q 758 753 760 747 L 759 736 L 753 710 L 759 705 L 761 702 L 768 696 L 792 664 L 800 648 L 809 620 L 810 608 L 811 607 L 811 594 L 812 593 L 810 570 L 810 568 L 801 538 Q 791 514 775 497 Q 755 474 729 459 L 706 448 L 677 439 L 673 417 L 664 391 Q 652 363 633 343 Q 618 325 599 311 Q 576 295 549 284 L 519 274 L 490 268 L 466 266 L 465 265 L 452 265 L 451 264 L 423 264 Z M 368 665 L 369 667 Q 370 664 368 665 Z M 375 666 Q 373 669 376 668 L 375 666 Z M 381 668 L 381 669 L 383 669 L 381 668 Z M 388 669 L 389 671 Q 390 668 388 669 Z M 397 670 L 396 673 L 400 672 L 397 670 Z M 408 673 L 408 674 L 413 674 L 408 673 Z M 417 673 Q 414 675 417 676 Q 420 675 417 673 Z M 452 673 L 452 675 L 454 674 L 452 673 Z M 788 673 L 788 676 Q 786 674 784 678 Q 785 681 783 680 L 772 693 L 756 709 L 754 709 L 756 720 Q 760 721 759 719 L 761 719 L 767 713 L 766 712 Q 765 709 769 710 L 770 708 L 770 706 L 775 700 Q 774 697 777 698 L 777 695 L 779 695 Q 781 694 779 693 L 782 689 Q 783 686 785 688 L 785 686 Q 788 684 786 683 Q 790 679 790 674 L 788 673 Z M 439 675 L 440 677 L 442 676 L 439 675 Z M 446 675 Q 444 678 447 677 L 446 675 Z M 457 680 L 458 682 Q 459 679 457 680 Z M 463 686 L 462 688 L 464 689 L 463 686 Z M 465 689 L 466 691 Q 467 688 465 689 Z M 468 690 L 466 692 L 468 692 L 468 690 Z M 476 700 L 475 702 L 478 704 L 476 700 Z M 497 722 Q 495 725 498 724 L 497 722 Z M 507 732 L 508 734 Q 509 731 507 732 Z M 513 736 L 516 739 L 516 737 L 513 736 Z M 517 739 L 518 741 L 519 741 L 517 739 Z M 534 749 L 534 750 L 536 750 L 534 749 Z M 542 753 Q 542 756 546 756 L 546 754 L 542 753 Z M 559 760 L 560 762 L 562 762 L 559 760 Z M 698 760 L 697 762 L 701 763 L 701 761 L 698 760 Z M 567 763 Q 567 767 569 764 L 567 763 Z M 582 766 L 580 768 L 585 769 L 586 769 L 582 766 Z M 664 768 L 660 769 L 660 770 L 669 769 L 664 768 Z M 636 771 L 635 773 L 637 772 L 636 771 Z M 629 772 L 630 774 L 632 773 L 629 772 Z M 638 772 L 638 773 L 640 773 L 638 772 Z " /><path fill="rgb(0,0,0)" stroke="rgb(0,0,0)" stroke-width="1" opacity="0" d="M 349.5 640 L 351 640.5 L 344.5 644 L 345.5 642 L 349.5 640 Z " /><path fill="rgb(0,0,0)" stroke="rgb(0,0,0)" stroke-width="1" opacity="0" d="M 354.5 640 L 385 647.5 L 381.5 648 L 360.5 643 L 354.5 641 L 354.5 640 Z " /><path fill="rgb(0,0,0)" stroke="rgb(0,0,0)" stroke-width="1" opacity="0" d="M 341.5 644 L 343 644.5 L 313.5 659 L 313.5 658 L 341.5 644 Z " /><path fill="rgb(0,0,0)" stroke="rgb(0,0,0)" stroke-width="1" opacity="0" d="M 386.5 648 L 402 650.5 L 396.5 651 L 386.5 649 L 386.5 648 Z " /><path fill="rgb(0,0,0)" stroke="rgb(0,0,0)" stroke-width="1" opacity="0" d="M 403.5 651 L 417 652.5 L 408.5 653 L 403.5 652 L 403.5 651 Z " /><path fill="rgb(0,0,0)" stroke="rgb(0,0,0)" stroke-width="1" opacity="0" d="M 418.5 653 L 427 653.5 L 418.5 654 L 418.5 653 Z " /><path fill="rgb(0,0,0)" stroke="rgb(0,0,0)" stroke-width="1" opacity="0" d="M 431.5 654 L 448 654.5 L 431.5 655 L 431.5 654 Z " /><path fill="rgb(0,0,0)" stroke="rgb(0,0,0)" stroke-width="1" opacity="0" d="M 449.5 654 L 456 654.5 L 449.5 655 L 449.5 654 Z " /><path fill="rgb(0,0,0)" stroke="rgb(0,0,0)" stroke-width="1" opacity="0" d="M 357.5 655 L 357 656.5 L 356.5 658 L 356 656.5 L 357.5 655 Z " /><path fill="rgb(0,0,0)" stroke="rgb(0,0,0)" stroke-width="1" opacity="0" d="M 370.5 658 L 372 660.5 L 370 659.5 L 370.5 658 Z " /><path fill="rgb(0,0,0)" stroke="rgb(0,0,0)" stroke-width="1" opacity="0" d="M 459.5 658 Q 471.7 680.3 489.5 697 Q 504.4 711.6 523 722.5 L 521.5 723 Q 504.8 712.8 491 699.5 Q 491.8 697.3 489.5 698 L 485 695 L 474.5 682 L 473 682.5 Q 475.5 681 472 679.5 L 462 664.5 L 459.5 658 Z " /><path fill="rgb(0,0,0)" stroke="rgb(0,0,0)" stroke-width="1" opacity="0" d="M 310.5 659 L 312 659.5 Q 303.8 665.3 291.5 667 L 291.5 666 Q 303 664.5 310.5 659 Z " /><path fill="rgb(0,0,0)" stroke="rgb(0,0,0)" stroke-width="1" opacity="0" d="M 352.5 662 Q 356.9 660.5 356 663.5 L 354.5 663 Q 351.5 663.5 352.5 662 Z " /><path fill="rgb(0,0,0)" stroke="rgb(0,0,0)" stroke-width="1" opacity="0" d="M 377.5 662 L 379 662.5 L 376.5 664 L 377.5 662 Z " /><path fill="rgb(0,0,0)" stroke="rgb(0,0,0)" stroke-width="1" opacity="0" d="M 448.5 668 L 452 669.5 L 448 670 L 448.5 668 Z " /><path fill="rgb(0,0,0)" stroke="rgb(0,0,0)" stroke-width="1" opacity="0" d="M 431.5 671 L 432 672.5 L 430 673.5 L 431.5 671 Z " /><path fill="rgb(0,0,0)" stroke="rgb(0,0,0)" stroke-width="1" opacity="0" d="M 462.5 679 Q 464.8 678.3 464 680.5 L 464.5 682 L 462.5 679 Z " /><path fill="rgb(0,0,0)" stroke="rgb(0,0,0)" stroke-width="1" opacity="0" d="M 467.5 679 L 468.5 681 L 467.5 679 Z " /><path fill="rgb(0,0,0)" stroke="rgb(0,0,0)" stroke-width="1" opacity="0" d="M 489.5 702 L 491 704.5 L 489 703.5 L 489.5 702 Z " /><path fill="rgb(0,0,0)" stroke="rgb(0,0,0)" stroke-width="1" opacity="0" d="M 490.5 714 L 492.5 717 L 490 716 L 490.5 714 Z " /><path fill="rgb(0,0,0)" stroke="rgb(0,0,0)" stroke-width="1" opacity="0" d="M 524.5 723 L 544 733.5 L 542.5 734 L 526.5 726 L 524.5 723 Z " /><path fill="rgb(0,0,0)" stroke="rgb(0,0,0)" stroke-width="1" opacity="0" d="M 506.5 726 L 505.5 728 L 506.5 726 Z " /><path fill="rgb(0,0,0)" stroke="rgb(0,0,0)" stroke-width="1" opacity="0" d="M 513.5 726 L 515 729.5 L 513 728.5 L 513.5 726 Z " /><path fill="rgb(0,0,0)" stroke="rgb(0,0,0)" stroke-width="1" opacity="0" d="M 545.5 734 L 551 736.5 L 548.5 737 L 545.5 734 Z " /><path fill="rgb(0,0,0)" stroke="rgb(0,0,0)" stroke-width="1" opacity="0" d="M 552.5 737 L 575 744.5 L 572.5 745 L 556.5 740 L 552.5 738 L 552.5 737 Z " /><path fill="rgb(0,0,0)" stroke="rgb(0,0,0)" stroke-width="1" opacity="0" d="M 694.5 739 L 696 739.5 Q 692.3 742.8 685.5 743 L 685.5 742 L 694.5 739 Z " /><path fill="rgb(0,0,0)" stroke="rgb(0,0,0)" stroke-width="1" opacity="0" d="M 697.5 739 L 702 739.5 L 697.5 740 L 697.5 739 Z " /><path fill="rgb(0,0,0)" stroke="rgb(0,0,0)" stroke-width="1" opacity="0" d="M 523.5 740 Q 524.6 742.8 528 742 Q 529.3 746.1 526 745 L 523.5 740 Z " /><path fill="rgb(0,0,0)" stroke="rgb(0,0,0)" stroke-width="1" opacity="0" d="M 703.5 740 L 709 742.5 L 707.5 743 Q 703.5 742.5 703.5 740 Z " /><path fill="rgb(0,0,0)" stroke="rgb(0,0,0)" stroke-width="1" opacity="0" d="M 677.5 744 L 681 744.5 Q 672.1 748.6 659.5 749 L 659.5 748 Q 670.5 748 677.5 744 Z " /><path fill="rgb(0,0,0)" stroke="rgb(0,0,0)" stroke-width="1" opacity="0" d="M 712.5 744 L 720 747.5 L 718.5 748 L 713.5 746 L 712.5 744 Z " /><path fill="rgb(0,0,0)" stroke="rgb(0,0,0)" stroke-width="1" opacity="0" d="M 576.5 745 L 584 746.5 L 579.5 747 L 576.5 746 L 576.5 745 Z " /><path fill="rgb(0,0,0)" stroke="rgb(0,0,0)" stroke-width="1" opacity="0" d="M 585.5 747 L 589 747.5 L 585.5 748 L 585.5 747 Z " /><path fill="rgb(0,0,0)" stroke="rgb(0,0,0)" stroke-width="1" opacity="0" d="M 590.5 748 L 595 748.5 L 590.5 749 L 590.5 748 Z " /><path fill="rgb(0,0,0)" stroke="rgb(0,0,0)" stroke-width="1" opacity="0" d="M 596.5 749 L 602 749.5 L 596.5 750 L 596.5 749 Z " /><path fill="rgb(0,0,0)" stroke="rgb(0,0,0)" stroke-width="1" opacity="0" d="M 651.5 749 L 658 749.5 L 651.5 750 L 651.5 749 Z " /><path fill="rgb(0,0,0)" stroke="rgb(0,0,0)" stroke-width="1" opacity="0" d="M 723.5 749 L 733 753.5 L 731.5 754 L 723.5 750 L 723.5 749 Z " /><path fill="rgb(0,0,0)" stroke="rgb(0,0,0)" stroke-width="1" opacity="0" d="M 604.5 750 L 612 750.5 L 604.5 751 L 604.5 750 Z " /><path fill="rgb(0,0,0)" stroke="rgb(0,0,0)" stroke-width="1" opacity="0" d="M 641.5 750 L 650 750.5 L 641.5 751 L 641.5 750 Z " /><path fill="rgb(0,0,0)" stroke="rgb(0,0,0)" stroke-width="1" opacity="0" d="M 615.5 751 L 640 751.5 L 615.5 752 L 615.5 751 Z " /><path fill="rgb(0,0,0)" stroke="rgb(0,0,0)" stroke-width="1" opacity="0" d="M 738.5 756 L 743 757.5 L 740.5 758 L 738.5 756 Z " /><path fill="rgb(0,0,0)" stroke="rgb(0,0,0)" stroke-width="1" opacity="0" d="M 683.5 763 L 686 763.5 L 683.5 764 L 683.5 763 Z " /><path fill="rgb(0,0,0)" stroke="rgb(0,0,0)" stroke-width="1" opacity="0" d="M 597.5 768 L 598.5 770 Q 595.7 770.7 597.5 768 Z " /><path fill="rgb(86,199,98)" stroke="rgb(86,199,98)" stroke-width="1" opacity="0.9921568627450981" d="M 422.5 264 L 450.5 264 L 451.5 265 L 464.5 265 L 465.5 266 L 489.5 268 L 518.5 274 L 545.5 283 L 547 282.5 L 546.5 284 L 550.5 283 L 550.5 284 L 549 284.5 L 581.5 300 L 583 299.5 Q 580.8 300.8 583.5 302 Q 600.9 311.1 614.5 324 L 616 323.5 L 615 324.5 L 622.5 332 L 624 331.5 L 623 332.5 L 630.5 340 L 632 339.5 L 631 340.5 L 632.5 343 L 631 343.5 Q 632.2 346.3 633.5 344 L 638 348.5 L 636 348.5 L 637.5 351 L 638.5 350 L 642 353.5 L 643.5 356 Q 644.8 353.8 646 356.5 L 642 356.5 L 643.5 359 Q 645.3 356.3 647 360.5 L 649 363.5 L 647 363.5 L 651.5 371 L 652.5 369 L 654 371.5 L 652 371.5 L 660.5 388 L 661.5 386 L 663 388.5 L 661 388.5 L 670 413.5 L 675.5 440 L 676.5 436 L 677 439 L 684 441.5 L 682 442.5 L 684.5 443 L 687.5 442 L 687.5 443 L 685 443.5 L 688.5 444 L 690.5 443 L 690.5 444 L 689 444.5 L 691.5 445 L 694.5 444 L 697 445.5 L 695 446.5 L 697.5 447 L 699.5 446 Q 730 456.5 752 475.5 L 751 476.5 L 755.5 481 L 757 480.5 L 753.5 476 L 775 496.5 L 773 497.5 L 774 500 L 776 499.5 L 775.5 498 L 779.5 503 L 776 500.5 L 789 519.5 L 787 519.5 L 788.5 522 L 790 522.5 L 790 524.5 L 790 526 Q 793.8 524.5 793 527.5 L 797 535.5 L 796 535.5 L 795.5 534 L 795 536.5 L 798 544.5 L 797 544.5 L 795 537.5 L 785.5 520 L 784 520.5 L 785 518.5 L 782.5 515 Q 781.3 517.3 780 514.5 L 782 514.5 L 777.5 508 Q 776.3 510.2 775 507.5 L 777 507.5 L 773.5 503 Q 772.3 505.3 771 502.5 L 772 500.5 L 767.5 496 L 766.5 497 L 757 487.5 L 758 486.5 L 753.5 482 L 751.5 483 L 748.5 478 L 746.5 477 L 745 477.5 Q 747.7 475.8 743.5 474 L 741.5 475 L 740.5 472 L 738.5 471 L 737 471.5 Q 739.3 470.3 736.5 469 L 735 469.5 L 735.5 471 L 734.5 468 L 732.5 469 L 731.5 466 L 729.5 467 L 728.5 464 L 725.5 463 L 724 463.5 L 724.5 462 L 722.5 463 L 722.5 461 L 720.5 462 L 720.5 460 L 718.5 461 L 718.5 459 L 716.5 460 L 716.5 458 L 714.5 459 L 714.5 457 L 712.5 458 L 712.5 456 L 710.5 457 L 710.5 455 L 706.5 454 L 705 454.5 L 705.5 453 L 703.5 454 L 703.5 452 L 700.5 453 L 700.5 451 L 696.5 450 L 694.5 451 L 694.5 450 L 696 449.5 L 693.5 449 L 692 449.5 L 692.5 448 L 688.5 449 L 688.5 448 L 690 447.5 L 675.5 443 L 671.5 443 L 669.5 444 L 669.5 443 L 671 442.5 L 659.5 441 L 655.5 442 L 655.5 441 L 659 440.5 L 650.5 439 L 613.5 439 L 613.5 440 L 619 440.5 L 613.5 441 L 612.5 440 L 604.5 440 L 604.5 441 L 607 441.5 L 603.5 442 Q 602.3 439.8 597.5 441 L 597.5 442 L 599 442.5 L 596.5 443 L 591.5 442 L 591.5 443 L 593 443.5 L 591.5 444 L 586.5 443 L 586.5 444 L 588 444.5 L 586.5 445 L 582.5 444 L 582.5 446 L 578.5 445 L 578.5 447 L 574.5 446 L 574.5 448 L 570.5 447 L 570.5 449 L 567.5 448 L 567.5 450 L 563.5 449 L 560 450.5 L 562 451.5 L 560.5 452 L 558.5 451 L 558.5 453 L 555.5 452 L 555.5 454 L 552.5 453 L 552.5 455 L 550.5 454 L 550.5 456 L 547.5 455 L 547.5 457 L 545.5 456 L 545.5 458 L 542.5 457 L 540 458.5 L 540.5 460 L 538.5 459 L 538.5 461 L 536.5 460 L 536.5 462 L 534.5 461 L 534.5 463 L 532.5 462 L 532.5 464 L 530.5 463 L 530.5 465 L 528.5 464 L 528.5 466 L 526.5 465 L 526.5 467 L 524.5 466 L 523.5 469 L 521.5 468 L 521.5 470 L 519.5 469 L 518.5 472 L 516.5 471 L 515.5 474 L 513.5 473 L 512.5 476 L 510.5 475 L 509.5 478 L 507.5 477 L 505.5 481 L 503.5 480 L 500.5 485 L 498.5 484 L 493 489.5 L 494 490.5 L 484.5 500 L 483.5 499 L 480 502.5 L 481 504.5 L 476 507.5 L 477 509.5 Q 475 507.8 473 511.5 L 474 513.5 L 471 514.5 L 471.5 516 L 473 515.5 L 469 517.5 L 468 520.5 L 468.5 522 Q 467.2 519.8 466 522.5 Q 457.4 536.4 453.5 555 L 453 551.5 L 454 548.5 L 452.5 549 Q 450.3 549.8 451 547.5 L 453.5 547 Q 456.1 547.8 455 544.5 L 454 544.5 Q 454.7 547.1 452 546 L 459 527.5 L 457 528.5 L 448 551.5 L 445 565.5 Q 446.8 571.8 444 573.5 L 444 603.5 L 445 604.5 L 447 622.5 L 452 638 L 429.5 638 L 428.5 637 L 408.5 636 L 371.5 629 L 357.5 624 L 351.5 624 L 323.5 641 L 291.5 656 L 287.5 656 Q 282 654 284 644.5 L 287 632.5 L 292 598.5 Q 271.3 583.7 255 564.5 Q 240.9 547.6 230 527.5 L 220 505.5 L 215 488.5 L 216 485.5 L 215 485.5 L 214.5 487 L 214 484.5 L 215 482 Q 212 483.3 213 479.5 L 214 476.5 L 213 476.5 L 212.5 478 L 212 474.5 L 213 471.5 L 211 471.5 L 212 462.5 L 211 462.5 L 210.5 465 L 210 457.5 L 211 456.5 L 211 435.5 Q 208.5 434 210 428.5 L 211 428.5 L 211.5 434 L 212 425.5 L 211 421.5 L 212 421.5 L 212.5 425 L 213 419.5 L 212 416.5 L 213 416.5 L 213.5 419 L 215 410.5 L 214 408.5 L 215 408.5 L 215.5 410 L 217 403.5 L 216 401.5 L 217 401.5 L 217.5 403 L 219 397.5 L 218 395.5 L 219 395.5 L 219.5 397 L 220 394.5 L 219 392.5 L 220 392.5 L 220.5 394 L 222 389.5 L 220.5 387 Q 213.5 400.5 210.5 418 L 209.5 414 L 208.5 417 L 207 416.5 L 208 424.5 L 207.5 426 Q 210.3 425.4 209 431.5 L 208 432.5 L 207.5 454 L 206.5 433 L 205.5 436 L 204.5 433 L 203.5 438 L 203 432.5 L 205 428.5 L 204 424.5 L 211 396.5 L 226 365.5 L 224 366.5 L 222.5 369 L 223 367.5 L 226.5 362 L 226 363.5 L 226.5 365 L 236 350.5 L 232 352.5 L 241 345.5 L 239.5 345 L 236 347.5 L 248 337.5 L 247.5 336 L 242 340.5 Q 254.9 325.9 271 314.5 L 270.5 313 L 272 313.5 L 272.5 312 L 273.5 313 L 276.5 310 L 297 297.5 L 295.5 297 L 294 297.5 L 296.5 296 L 298.5 297 L 320.5 286 L 355.5 274 L 389.5 267 L 397.5 267 L 406.5 265 L 421.5 265 L 422.5 264 Z M 415 270 L 414 271 L 404 271 L 403 272 L 383 274 L 356 280 L 318 294 L 294 307 L 292 307 L 291 309 L 286 312 Q 284 315 283 313 L 282 315 Q 280 319 279 316 L 278 318 L 274 321 L 270 325 L 269 324 L 266 326 L 266 328 L 253 341 L 252 340 L 247 346 L 250 346 L 267 330 L 257 340 L 257 341 Q 262 342 264 337 L 257 345 L 258 346 Q 285 315 327 298 L 358 287 L 374 283 L 397 280 L 398 279 L 421 278 L 422 277 L 450 277 L 451 278 L 464 278 L 465 279 L 483 280 L 523 289 Q 571 304 605 334 L 601 328 L 605 331 L 606 330 L 602 324 L 608 329 L 625 346 L 626 345 L 624 342 Q 622 337 621 340 L 613 333 L 614 332 L 611 329 Q 609 325 608 328 L 604 324 Q 603 321 602 323 Q 597 321 600 320 L 599 319 L 597 319 L 594 316 L 593 316 L 591 314 L 590 314 L 586 311 L 584 309 L 583 309 Q 553 289 515 279 L 470 271 L 457 271 L 456 270 L 415 270 Z M 255 329 L 249 336 L 256 330 L 255 329 Z M 609 332 L 608 334 L 611 335 L 609 332 Z M 608 336 L 609 338 Q 610 335 608 336 Z M 611 339 L 612 341 Q 613 338 611 339 Z M 255 341 L 255 343 L 255 344 L 258 343 L 255 341 Z M 249 346 L 246 349 L 245 348 L 242 352 L 245 352 L 249 348 L 249 346 Z M 627 347 L 626 349 L 630 352 L 631 350 L 627 347 Z M 255 348 L 251 353 L 255 350 L 255 348 Z M 244 352 Q 242 355 241 353 L 239 356 L 242 356 L 244 354 L 244 352 Z M 632 353 Q 630 356 634 357 L 635 355 L 632 353 Z M 250 354 L 248 357 L 250 356 L 250 354 Z M 239 356 L 237 358 L 239 360 L 241 357 L 239 356 Z M 635 357 L 634 359 L 638 360 L 638 359 L 635 357 Z M 247 358 L 245 361 L 247 360 L 247 358 Z M 236 360 L 237 363 L 238 361 L 236 360 Z M 639 360 L 637 363 Q 639 366 640 363 L 639 360 Z M 234 363 L 235 366 L 236 364 L 234 363 Z M 640 364 L 641 367 L 642 365 L 640 364 Z M 233 365 L 231 367 L 232 369 L 231 368 L 228 372 L 229 374 L 227 374 L 228 376 L 227 375 L 221 385 L 223 389 L 231 373 L 230 371 L 232 371 L 234 368 L 233 365 Z M 357 368 L 345 372 L 343 374 L 344 376 L 353 372 Q 369 370 377 376 L 377 374 L 370 369 L 357 368 Z M 505 368 Q 495 370 489 375 Q 482 380 479 388 L 480 391 L 480 392 L 479 390 L 477 393 Q 475 407 480 415 L 484 417 L 483 416 L 482 418 Q 483 420 485 418 L 490 424 L 486 420 L 485 422 Q 491 428 502 431 Q 517 433 524 428 L 522 427 L 525 425 L 525 427 L 528 426 L 532 422 L 531 421 L 533 421 L 539 412 L 541 404 L 541 397 L 540 403 L 539 403 Q 538 398 540 397 L 540 392 L 539 394 L 538 394 L 539 392 L 539 389 L 538 391 L 537 391 L 538 387 L 535 386 L 536 384 L 533 383 L 534 381 L 527 374 L 527 376 Q 524 375 526 374 Q 519 367 505 368 Z M 643 369 L 644 372 L 645 370 L 643 369 Z M 646 371 L 644 373 L 647 377 L 648 375 L 647 375 L 647 374 L 646 371 Z M 342 374 L 334 383 L 336 383 Q 335 385 334 383 L 331 387 L 332 390 L 332 391 L 331 389 L 328 399 L 329 408 L 333 417 L 337 419 L 336 418 L 335 420 L 342 425 L 341 422 Q 345 424 342 426 L 354 431 L 368 431 L 381 425 Q 389 418 392 407 L 392 394 L 387 383 L 384 379 L 383 380 Q 378 378 381 377 L 378 374 L 377 377 L 384 383 Q 385 381 386 384 L 384 384 L 389 396 L 389 405 L 386 414 Q 384 418 383 415 Q 380 414 381 417 L 380 416 L 374 419 L 376 419 Q 377 422 374 421 L 374 419 L 373 422 L 368 424 L 366 425 L 369 423 L 367 421 L 366 423 Q 364 421 363 424 L 362 423 L 361 425 Q 358 426 359 423 L 357 422 L 354 424 L 355 421 L 353 422 L 350 420 L 350 422 Q 347 421 350 419 Q 352 420 351 418 L 349 417 L 346 418 L 346 416 L 345 418 L 343 421 Q 345 420 344 423 L 357 427 L 370 426 L 378 421 Q 380 422 379 420 L 382 418 L 383 418 Q 377 426 365 428 Q 348 429 341 421 Q 335 415 332 407 L 332 393 L 337 383 L 343 377 L 343 375 L 342 374 Z M 348 375 L 348 377 L 350 376 L 348 375 Z M 649 376 L 647 379 L 650 379 L 649 376 Z M 376 378 L 376 379 L 378 379 L 376 378 Z M 340 381 Q 337 383 340 384 L 341 384 L 340 381 Z M 650 381 L 652 387 L 653 384 L 651 384 L 652 382 L 650 381 Z M 338 384 L 336 386 Q 335 389 339 390 L 339 387 L 337 387 L 340 386 L 338 384 Z M 655 387 L 653 391 L 655 390 L 654 392 L 656 396 L 657 394 L 655 387 Z M 336 388 L 334 391 Q 333 393 337 392 L 337 390 L 336 388 Z M 333 393 L 333 400 L 335 399 L 334 395 L 336 395 L 333 393 Z M 658 394 L 656 397 L 658 404 L 660 403 L 659 405 L 660 407 L 660 406 L 661 406 L 660 408 L 661 410 L 662 408 L 662 405 L 658 394 Z M 388 398 L 386 402 L 388 403 L 388 398 Z M 334 401 L 334 408 L 334 410 L 339 417 L 341 413 L 340 411 L 337 413 Q 336 410 339 411 L 339 409 L 337 410 L 337 409 Q 334 406 334 401 Z M 336 401 L 335 404 L 336 404 L 336 401 Z M 211 404 L 210 407 L 211 407 L 211 404 Z M 385 408 L 385 411 L 386 411 Q 387 407 385 408 Z M 663 408 L 661 411 L 662 414 L 662 413 L 663 413 L 662 415 L 663 418 L 663 416 L 664 416 L 663 419 L 664 422 L 664 421 L 665 421 L 664 424 L 665 426 L 665 425 L 666 425 L 665 431 L 667 431 L 666 436 Q 665 438 669 437 L 666 419 L 663 408 Z M 210 409 L 210 413 L 211 413 L 210 409 Z M 341 417 L 340 419 L 342 420 L 341 417 Z M 208 427 L 206 429 L 207 432 L 208 432 L 208 427 Z M 760 483 L 768 492 L 769 492 L 760 483 Z M 771 493 L 770 495 L 773 497 L 771 493 Z M 792 527 L 791 529 L 793 530 L 792 527 Z M 456 536 L 455 540 L 457 542 L 458 539 Q 459 535 456 536 Z " /><path fill="rgb(86,199,98)" stroke="rgb(86,199,98)" stroke-width="1" opacity="0.9921568627450981" d="M 597.5 321 L 599.5 324 L 597.5 321 Z " /><path fill="rgb(86,199,98)" stroke="rgb(86,199,98)" stroke-width="1" opacity="0.9921568627450981" d="M 273.5 323 L 272.5 325 L 273.5 323 Z " /><path fill="rgb(86,199,98)" stroke="rgb(86,199,98)" stroke-width="1" opacity="0.9921568627450981" d="M 267.5 333 L 265.5 336 L 267.5 333 Z " /><path fill="rgb(86,199,98)" stroke="rgb(86,199,98)" stroke-width="1" opacity="0.9921568627450981" d="M 221.5 370 L 221 371.5 L 216.5 380 L 217 378.5 L 221.5 370 Z " /><path fill="rgb(86,199,98)" stroke="rgb(86,199,98)" stroke-width="1" opacity="0.9921568627450981" d="M 352.5 370 L 355 370.5 L 352.5 371 L 352.5 370 Z " /><path fill="rgb(86,199,98)" stroke="rgb(86,199,98)" stroke-width="1" opacity="0.9921568627450981" d="M 501.5 370 L 504 370.5 L 501.5 371 L 501.5 370 Z " /><path fill="rgb(86,199,98)" stroke="rgb(86,199,98)" stroke-width="1" opacity="0.9921568627450981" d="M 514.5 370 L 517 370.5 L 514.5 371 L 514.5 370 Z " /><path fill="rgb(86,199,98)" stroke="rgb(86,199,98)" stroke-width="1" opacity="0.9921568627450981" d="M 501.5 372 L 516.5 372 Q 526.4 375.1 532 382.5 L 537 392.5 L 538 400.5 L 537 400.5 L 535 390.5 L 530.5 383 L 528 384 L 527.5 382 L 526 385 L 529 385.5 Q 525.5 387 528 388.5 L 528.5 390 L 530 389.5 L 529 391.5 L 532 392.5 L 532.5 394 L 534 393.5 Q 531.3 394.6 532 398 L 530 398.5 L 530.5 401 Q 532.8 401.8 532 399.5 L 533 399.5 L 531 404 L 527.5 403 L 525.5 403 L 524 403.5 L 524.5 406 Q 526.8 405.3 526 407.5 L 528 410.5 L 525.5 412 L 523.5 412 L 521 413.5 L 520.5 415 L 520 413.5 Q 522.3 412.3 519.5 411 L 518.5 414 L 515.5 410 L 514 412.5 L 516.5 416 L 511.5 414 L 510.5 416 Q 509.3 413.8 508 416.5 L 511 418.5 L 509.5 418 L 506.5 419 L 506.5 417 L 501.5 419 L 502 417.5 L 501.5 416 L 496.5 419 L 497.5 416 L 493.5 418 L 493.5 416 L 491 417.5 L 491.5 419 L 488 416.5 L 488 418.5 L 492 422.5 L 485 416.5 L 480 405.5 L 480 393.5 L 486 381.5 L 484 381.5 L 488.5 379 L 501.5 372 Z M 507 373 L 507 374 Q 512 372 511 376 L 512 376 L 512 373 L 507 373 Z M 515 373 L 516 375 L 519 375 L 515 373 Z M 498 375 L 499 377 Q 500 374 498 375 Z M 522 376 Q 519 378 522 379 L 522 378 L 525 379 L 526 379 Q 526 376 522 376 Z M 494 377 L 495 379 L 496 379 L 494 377 Z M 492 378 L 490 380 L 493 381 Q 494 377 492 378 Z M 522 379 L 522 381 L 524 380 L 522 379 Z M 526 379 L 526 381 L 529 382 L 529 381 L 526 379 Z M 524 383 L 524 386 L 525 386 Q 526 382 524 383 Z M 484 389 L 483 392 L 484 392 L 484 389 Z M 482 395 Q 480 403 482 408 L 483 408 L 482 395 Z " /><path fill="rgb(86,199,98)" stroke="rgb(86,199,98)" stroke-width="1" opacity="0.9921568627450981" d="M 489.5 376 L 488.5 378 L 489.5 376 Z " /><path fill="rgb(86,199,98)" stroke="rgb(86,199,98)" stroke-width="1" opacity="0.9921568627450981" d="M 656.5 376 L 658 378.5 L 656 377.5 L 656.5 376 Z " /><path fill="rgb(86,199,98)" stroke="rgb(86,199,98)" stroke-width="1" opacity="0.9921568627450981" d="M 215.5 381 L 216 382.5 L 214 383.5 L 215.5 381 Z " /><path fill="rgb(86,199,98)" stroke="rgb(86,199,98)" stroke-width="1" opacity="0.9921568627450981" d="M 212.5 388 L 213 389.5 L 211.5 392 L 211 390.5 L 212.5 388 Z " /><path fill="rgb(86,199,98)" stroke="rgb(86,199,98)" stroke-width="1" opacity="0.9921568627450981" d="M 478.5 394 L 479 398.5 L 478 398.5 L 478.5 394 Z " /><path fill="rgb(86,199,98)" stroke="rgb(86,199,98)" stroke-width="1" opacity="0.9921568627450981" d="M 390.5 395 L 391 404.5 L 390 404.5 L 390.5 395 Z " /><path fill="rgb(86,199,98)" stroke="rgb(86,199,98)" stroke-width="1" opacity="0.9921568627450981" d="M 478.5 400 L 479 404.5 L 478 404.5 L 478.5 400 Z " /><path fill="rgb(86,199,98)" stroke="rgb(86,199,98)" stroke-width="1" opacity="0.9921568627450981" d="M 536.5 403 L 537 407.5 L 532.5 416 L 533 414.5 L 536.5 403 Z " /><path fill="rgb(86,199,98)" stroke="rgb(86,199,98)" stroke-width="1" opacity="0.9921568627450981" d="M 514.5 417 L 515.5 419 L 514.5 417 Z " /><path fill="rgb(86,199,98)" stroke="rgb(86,199,98)" stroke-width="1" opacity="0.9921568627450981" d="M 530 417 L 532 417.5 L 524.5 424 L 528.5 419 Q 531.1 419.7 530 417 Z " /><path fill="rgb(86,199,98)" stroke="rgb(86,199,98)" stroke-width="1" opacity="0.9921568627450981" d="M 209.5 419 L 210 423.5 L 209 423.5 L 209.5 419 Z " /><path fill="rgb(86,199,98)" stroke="rgb(86,199,98)" stroke-width="1" opacity="0.9921568627450981" d="M 382.5 420 L 381.5 422 L 382.5 420 Z " /><path fill="rgb(86,199,98)" stroke="rgb(86,199,98)" stroke-width="1" opacity="0.9921568627450981" d="M 378.5 423 L 377.5 425 L 378.5 423 Z " /><path fill="rgb(86,199,98)" stroke="rgb(86,199,98)" stroke-width="1" opacity="0.9921568627450981" d="M 493.5 423 L 503 426.5 L 499.5 427 L 494.5 425 L 493.5 423 Z " /><path fill="rgb(86,199,98)" stroke="rgb(86,199,98)" stroke-width="1" opacity="0.9921568627450981" d="M 527.5 423 L 526.5 425 L 527.5 423 Z " /><path fill="rgb(86,199,98)" stroke="rgb(86,199,98)" stroke-width="1" opacity="0.9921568627450981" d="M 491.5 424 L 492.5 426 L 491.5 424 Z " /><path fill="rgb(86,199,98)" stroke="rgb(86,199,98)" stroke-width="1" opacity="0.9921568627450981" d="M 521.5 424 L 523 424.5 L 512.5 428 L 504.5 428 L 504.5 427 L 512.5 427 L 521.5 424 Z " /><path fill="rgb(86,199,98)" stroke="rgb(86,199,98)" stroke-width="1" opacity="0.9921568627450981" d="M 375.5 425 L 374.5 427 L 375.5 425 Z " /><path fill="rgb(86,199,98)" stroke="rgb(86,199,98)" stroke-width="1" opacity="0.9921568627450981" d="M 201.5 426 L 202 428.5 L 201 428.5 L 201.5 426 Z " /><path fill="rgb(86,199,98)" stroke="rgb(86,199,98)" stroke-width="1" opacity="0.9921568627450981" d="M 355.5 429 L 365 429.5 L 355.5 430 L 355.5 429 Z " /><path fill="rgb(86,199,98)" stroke="rgb(86,199,98)" stroke-width="1" opacity="0.9921568627450981" d="M 503.5 429 L 514 429.5 L 503.5 430 L 503.5 429 Z " /><path fill="rgb(86,199,98)" stroke="rgb(86,199,98)" stroke-width="1" opacity="0.9921568627450981" d="M 675.5 430 L 676 433.5 L 675 433.5 L 675.5 430 Z " /><path fill="rgb(86,199,98)" stroke="rgb(86,199,98)" stroke-width="1" opacity="0.9921568627450981" d="M 200.5 435 L 201 437.5 L 200 437.5 L 200.5 435 Z " /><path fill="rgb(86,199,98)" stroke="rgb(86,199,98)" stroke-width="1" opacity="0.9921568627450981" d="M 645.5 440 L 650 440.5 L 645.5 441 L 645.5 440 Z " /><path fill="rgb(86,199,98)" stroke="rgb(86,199,98)" stroke-width="1" opacity="0.9921568627450981" d="M 209.5 444 L 210 448.5 L 209 448.5 L 209.5 444 Z " /><path fill="rgb(86,199,98)" stroke="rgb(86,199,98)" stroke-width="1" opacity="0.9921568627450981" d="M 208.5 464 L 209 466.5 L 208 466.5 L 208.5 464 Z " /><path fill="rgb(86,199,98)" stroke="rgb(86,199,98)" stroke-width="1" opacity="0.9921568627450981" d="M 203.5 467 L 204 471.5 L 203 471.5 L 203.5 467 Z " /><path fill="rgb(86,199,98)" stroke="rgb(86,199,98)" stroke-width="1" opacity="0.9921568627450981" d="M 207.5 491 L 208 493.5 L 207 493.5 L 207.5 491 Z " /><path fill="rgb(86,199,98)" stroke="rgb(86,199,98)" stroke-width="1" opacity="0.9921568627450981" d="M 780.5 504 L 782.5 507 L 780.5 504 Z " /><path fill="rgb(86,199,98)" stroke="rgb(86,199,98)" stroke-width="1" opacity="0.9921568627450981" d="M 783.5 508 L 785.5 511 L 783.5 508 Z " /><path fill="rgb(86,199,98)" stroke="rgb(86,199,98)" stroke-width="1" opacity="0.9921568627450981" d="M 786.5 512 L 787.5 514 L 786.5 512 Z " /><path fill="rgb(86,199,98)" stroke="rgb(86,199,98)" stroke-width="1" opacity="0.9921568627450981" d="M 788.5 515 L 789.5 517 L 788.5 515 Z " /><path fill="rgb(86,199,98)" stroke="rgb(86,199,98)" stroke-width="1" opacity="0.9921568627450981" d="M 791.5 520 L 792.5 522 L 791.5 520 Z " /><path fill="rgb(86,199,98)" stroke="rgb(86,199,98)" stroke-width="1" opacity="0.9921568627450981" d="M 563.5 521 Q 581.6 520.9 589 531.5 L 588.5 533 L 591 534.5 Q 595.8 540.7 594 553.5 Q 590.9 564.4 582.5 570 Q 575.8 575.8 561.5 574 L 552 570 Q 553.3 567 549.5 568 Q 540.1 560.9 540 544.5 L 544 533.5 L 547.5 530 Q 549.8 530.8 549 528.5 L 552.5 525 L 563.5 521 Z " /><path fill="rgb(86,199,98)" stroke="rgb(86,199,98)" stroke-width="1" opacity="0.9921568627450981" d="M 685.5 521 Q 701.7 520.3 709 528.5 L 708.5 530 L 713 533.5 L 714 535.5 L 713.5 537 Q 716.1 536.2 715 539.5 Q 717.9 543.1 717 550.5 Q 714.8 561.8 707.5 568 L 695.5 574 L 683.5 574 L 676 571 L 675.5 569 L 674.5 570 L 668 563.5 L 668.5 562 L 666 560.5 L 663 552.5 L 663 543.5 L 668.5 532 L 670 531.5 L 669 530.5 L 672.5 527 L 685.5 521 Z " /><path fill="rgb(86,199,98)" stroke="rgb(86,199,98)" stroke-width="1" opacity="0.9921568627450981" d="M 801.5 536 L 800.5 538 L 801.5 536 Z " /><path fill="rgb(86,199,98)" stroke="rgb(86,199,98)" stroke-width="1" opacity="0.9921568627450981" d="M 800.5 544 L 802 548.5 L 801 548.5 L 800.5 544 Z " /><path fill="rgb(86,199,98)" stroke="rgb(86,199,98)" stroke-width="1" opacity="0.9921568627450981" d="M 799.5 549 L 803 559.5 L 801 560 L 799.5 549 Z " /><path fill="rgb(86,199,98)" stroke="rgb(86,199,98)" stroke-width="1" opacity="0.9921568627450981" d="M 452.5 556 L 453 559.5 L 452 559.5 L 452.5 556 Z " /><path fill="rgb(86,199,98)" stroke="rgb(86,199,98)" stroke-width="1" opacity="0.9921568627450981" d="M 451.5 561 L 452 564.5 L 451 564.5 L 451.5 561 Z " /><path fill="rgb(86,199,98)" stroke="rgb(86,199,98)" stroke-width="1" opacity="0.9921568627450981" d="M 802.5 561 L 803 564.5 L 802 564.5 L 802.5 561 Z " /><path fill="rgb(86,199,98)" stroke="rgb(86,199,98)" stroke-width="1" opacity="0.9921568627450981" d="M 450.5 568 L 451 575.5 L 450 575.5 L 450.5 568 Z " /><path fill="rgb(86,199,98)" stroke="rgb(86,199,98)" stroke-width="1" opacity="0.9921568627450981" d="M 803.5 569 L 804 572.5 L 803 572.5 L 803.5 569 Z " /><path fill="rgb(86,199,98)" stroke="rgb(86,199,98)" stroke-width="1" opacity="0.9921568627450981" d="M 452.5 570 L 453 574.5 L 452 574.5 L 452.5 570 Z " /><path fill="rgb(86,199,98)" stroke="rgb(86,199,98)" stroke-width="1" opacity="0.9921568627450981" d="M 801.5 570 L 802 573.5 L 801 573.5 L 801.5 570 Z " /><path fill="rgb(86,199,98)" stroke="rgb(86,199,98)" stroke-width="1" opacity="0.9921568627450981" d="M 804.5 583 L 805 586.5 L 804 586.5 L 804.5 583 Z " /><path fill="rgb(86,199,98)" stroke="rgb(86,199,98)" stroke-width="1" opacity="0.9921568627450981" d="M 450.5 591 L 451 593.5 L 450 593.5 L 450.5 591 Z " /><path fill="rgb(86,199,98)" stroke="rgb(86,199,98)" stroke-width="1" opacity="0.9921568627450981" d="M 452.5 591 L 453 594.5 L 452 594.5 L 452.5 591 Z " /><path fill="rgb(86,199,98)" stroke="rgb(86,199,98)" stroke-width="1" opacity="0.9921568627450981" d="M 451.5 602 L 452 604.5 L 451 604.5 L 451.5 602 Z " /><path fill="rgb(86,199,98)" stroke="rgb(86,199,98)" stroke-width="1" opacity="0.9921568627450981" d="M 776.5 662 L 775.5 664 L 776.5 662 Z " /><path fill="rgb(86,199,98)" stroke="rgb(86,199,98)" stroke-width="1" opacity="0.9921568627450981" d="M 480.5 664 L 481.5 666 L 480.5 664 Z " /><path fill="rgb(86,199,98)" stroke="rgb(86,199,98)" stroke-width="1" opacity="0.9921568627450981" d="M 484.5 669 L 485.5 671 L 484.5 669 Z " /><path fill="rgb(86,199,98)" stroke="rgb(86,199,98)" stroke-width="1" opacity="0.9921568627450981" d="M 767.5 673 L 765.5 676 L 767.5 673 Z " /><path fill="rgb(86,199,98)" stroke="rgb(86,199,98)" stroke-width="1" opacity="0.9921568627450981" d="M 503.5 688 L 504.5 690 L 503.5 688 Z " /><path fill="rgb(86,199,98)" stroke="rgb(86,199,98)" stroke-width="1" opacity="0.9921568627450981" d="M 752.5 688 L 751.5 690 L 752.5 688 Z " /><path fill="rgb(86,199,98)" stroke="rgb(86,199,98)" stroke-width="1" opacity="0.9921568627450981" d="M 508.5 692 L 509.5 694 L 508.5 692 Z " /><path fill="rgb(86,199,98)" stroke="rgb(86,199,98)" stroke-width="1" opacity="0.9921568627450981" d="M 746.5 693 L 745.5 695 L 746.5 693 Z " /><path fill="rgb(86,199,98)" stroke="rgb(86,199,98)" stroke-width="1" opacity="0.9921568627450981" d="M 605.5 732 L 608 732.5 L 605.5 733 L 605.5 732 Z " /><path fill="rgb(86,199,98)" stroke="rgb(86,199,98)" stroke-width="1" opacity="0.9921568627450981" d="M 650.5 732 L 653 732.5 L 650.5 733 L 650.5 732 Z " /><path fill="rgb(86,199,98)" stroke="rgb(86,199,98)" stroke-width="1" opacity="0.9921568627450981" d="M 617.5 733 L 641 733.5 L 617.5 734 L 617.5 733 Z " /><path fill="rgb(236,238,236)" stroke="rgb(236,238,236)" stroke-width="1" opacity="0.996078431372549" d="M 414.5 270 L 455.5 270 L 456.5 271 L 469.5 271 L 470.5 272 L 501.5 276 L 539.5 287 Q 591.3 306.7 625 344.5 Q 640 361.5 651 382.5 Q 660 399.5 664 421.5 L 663 421.5 L 659 404.5 L 647 377.5 Q 631.2 349.3 607.5 329 L 606 329.5 L 611.5 336 L 608 333.5 L 607.5 332 L 606 332.5 Q 608.3 331.3 605.5 330 L 603 331.5 L 609 336 L 610.5 339 Q 612.8 338.3 612 340.5 L 626 355.5 L 621 351.5 L 604.5 334 Q 571.3 303.7 522.5 289 L 482.5 280 L 464.5 279 L 463.5 278 L 450.5 278 L 449.5 277 L 421.5 277 L 420.5 278 L 397.5 279 L 396.5 280 L 373.5 283 L 357.5 287 L 319.5 301 Q 281.4 318.9 255 348.5 L 238.5 371 L 239 369.5 Q 246.9 354.9 258 343.5 L 256.5 343 L 253.5 345 L 255 342.5 L 254.5 341 Q 234.1 361.1 222 389.5 L 215 410.5 L 211.5 434 L 211 425.5 L 217 399.5 L 229 372.5 Q 245.1 345.1 268.5 325 Q 296.4 300.9 334.5 287 L 367.5 277 L 388.5 273 L 402.5 272 L 403.5 271 L 413.5 271 L 414.5 270 Z M 257 339 L 255 341 L 257 341 L 257 339 Z M 258 341 Q 258 345 260 342 L 258 341 Z " /><path fill="rgb(236,238,236)" stroke="rgb(236,238,236)" stroke-width="1" opacity="0.996078431372549" d="M 626.5 357 L 627.5 359 L 626.5 357 Z " /><path fill="rgb(236,238,236)" stroke="rgb(236,238,236)" stroke-width="1" opacity="0.996078431372549" d="M 629.5 361 L 630.5 363 L 629.5 361 Z " /><path fill="rgb(236,238,236)" stroke="rgb(236,238,236)" stroke-width="1" opacity="0.996078431372549" d="M 356.5 368 L 369.5 369 Q 380.5 373.5 387 382.5 L 392 393.5 L 392 406.5 Q 388.9 418.4 380.5 425 L 367.5 431 L 353.5 431 Q 341.5 428 335 419.5 Q 328.5 412 328 398.5 L 332 384.5 L 341.5 374 L 348.5 370 L 356.5 368 Z M 353 370 L 344 374 Q 333 380 330 394 L 330 407 L 335 418 Q 342 427 356 430 L 370 429 L 382 422 Q 389 416 391 405 L 391 396 L 383 380 Q 377 373 368 370 L 353 370 Z " /><path fill="rgb(236,238,236)" stroke="rgb(236,238,236)" stroke-width="1" opacity="0.996078431372549" d="M 504.5 368 L 512.5 368 L 520.5 370 Q 528.9 373.6 534 380.5 Q 541.3 388.3 541 403.5 Q 538.5 419 527.5 426 L 515.5 431 L 501.5 431 Q 491 428.5 485 421.5 Q 479.3 415.7 477 406.5 L 477 392.5 Q 480.4 381.4 488.5 375 Q 494.9 369.9 504.5 368 Z M 502 370 L 490 376 Q 481 383 478 395 Q 477 411 484 419 Q 491 427 504 430 L 518 429 L 524 427 L 532 421 Q 538 414 540 403 Q 540 390 535 384 Q 530 375 520 371 L 517 370 L 502 370 Z " /><path fill="rgb(236,238,236)" stroke="rgb(236,238,236)" stroke-width="1" opacity="0.996078431372549" d="M 236.5 374 L 236 375.5 L 234.5 378 L 235 376.5 L 236.5 374 Z " /><path fill="rgb(236,238,236)" stroke="rgb(236,238,236)" stroke-width="1" opacity="0.996078431372549" d="M 664.5 423 L 665 425.5 L 664 425.5 L 664.5 423 Z " /><path fill="rgb(236,238,236)" stroke="rgb(236,238,236)" stroke-width="1" opacity="0.996078431372549" d="M 665.5 428 L 666 430.5 L 665 430.5 L 665.5 428 Z " /><path fill="rgb(236,238,236)" stroke="rgb(236,238,236)" stroke-width="1" opacity="0.996078431372549" d="M 210.5 435 L 211 456.5 L 210 456.5 L 210.5 435 Z " /><path fill="rgb(236,238,236)" stroke="rgb(236,238,236)" stroke-width="1" opacity="0.996078431372549" d="M 619.5 440 L 644.5 440 L 645.5 441 L 654.5 441 L 655.5 442 L 668.5 443 L 691.5 449 L 707.5 455 Q 745.9 471.6 771 501.5 Q 788.2 520.8 797 548.5 L 802 574.5 L 802 597.5 L 796 625.5 L 785 649.5 Q 772.1 671.6 753.5 688 L 742 697.5 L 752 741.5 L 749.5 746 L 743.5 747 L 697.5 721 L 677.5 728 L 657.5 732 Q 651.3 730.3 649.5 733 L 608.5 733 L 607.5 732 L 600.5 732 L 584.5 729 L 569.5 725 Q 548.2 718.3 530.5 708 Q 504.9 693.1 486 671.5 Q 469.9 653.1 460 628.5 L 453 600.5 L 452 575.5 L 457 547.5 L 470 518.5 Q 482.3 499.3 499.5 485 Q 522.6 465.6 553.5 454 L 583.5 445 L 599.5 442 L 606.5 442 L 607.5 441 L 618.5 441 L 619.5 440 Z M 564 521 L 553 525 Q 543 531 540 545 Q 540 558 546 565 Q 551 572 562 574 Q 576 576 583 570 Q 591 564 594 554 Q 596 538 589 532 Q 582 521 564 521 Z M 686 521 L 673 527 Q 666 533 663 544 L 663 553 L 668 564 Q 673 571 684 574 L 696 574 L 708 568 Q 715 562 717 551 L 717 545 L 715 538 L 709 528 L 698 522 L 686 521 Z " /><path fill="rgb(236,238,236)" stroke="rgb(236,238,236)" stroke-width="1" opacity="0.996078431372549" d="M 211.5 462 L 212 465.5 L 211 465.5 L 211.5 462 Z " /><path fill="rgb(236,238,236)" stroke="rgb(236,238,236)" stroke-width="1" opacity="0.996078431372549" d="M 212.5 471 L 213 473.5 L 212 473.5 L 212.5 471 Z " /><path fill="rgb(236,238,236)" stroke="rgb(236,238,236)" stroke-width="1" opacity="0.996078431372549" d="M 213.5 476 L 214 478.5 L 213 478.5 L 213.5 476 Z " /><path fill="rgb(236,238,236)" stroke="rgb(236,238,236)" stroke-width="1" opacity="0.996078431372549" d="M 215.5 485 L 216 487.5 L 215 487.5 L 215.5 485 Z " /></svg>